<?xml version="1.0" encoding="UTF-8"?>
<svg id="Layer_1" data-name="Layer 1" xmlns="http://www.w3.org/2000/svg" viewBox="0 0 308.28 316.82">
  <defs>
    <style>
      .cls-1 {
        fill: #f7af1f;
      }

      .cls-2 {
        fill: #fad210;
      }

      .cls-3 {
        fill: #010101;
      }

      .cls-4 {
        fill: #e7d0a9;
      }

      .cls-5 {
        fill: #ec3f7b;
      }

      .cls-6 {
        fill: #ed5428;
      }

      .cls-7 {
        fill: #ef6826;
      }

      .cls-8 {
        fill: #fffcf9;
      }

      .cls-9 {
        fill: #fffffe;
      }

      .cls-10 {
        fill: #fff;
      }

      .cls-11 {
        fill: #ffe4b8;
      }

      .cls-12 {
        fill: #ee5f88;
      }

      .cls-13 {
        fill: #c3c1c1;
      }

      .cls-14 {
        fill: #dbd5ce;
      }

      .cls-15 {
        fill: #121110;
      }

      .cls-16 {
        fill: #161414;
      }

      .cls-17 {
        fill: #090808;
      }

      .cls-18 {
        fill: #1c1a1a;
      }

      .cls-19 {
        fill: #396aa6;
      }

      .cls-20 {
        fill: #4f9bd2;
      }

      .cls-21 {
        fill: #509bd2;
      }
    </style>
  </defs>
  <path class="cls-3" d="M226.27,153.56c3.56,1.09,4.29,2.14,4.41,6.33,.65,22.93,15.15,43.19,36.63,51.17,6.3,2.34,12.81,3.5,19.53,3.56,6.87,.06,11.79,4.48,12.6,11.29,.33,2.82-.57,5.37-1.93,7.82-17.53,31.62-42.74,54.88-75.79,69.55-14.1,6.26-28.86,10.27-44.21,12.07-5.14,.6-10.29,1.09-15.47,1.1-.33,0-.77-.16-.91,.37h-.75c-1.62-.31-3.25-.31-4.87,0h-.75c-.27-.68-.86-.35-1.29-.36-25.82-.81-50.06-7.41-72.58-20.08-27.84-15.67-49.04-37.8-63.68-66.21-1.2-2.33-1.04-4.32,.44-5.85,1.3-1.34,3.45-1.73,5.17-.96,1.35,.6,2.03,1.78,2.66,3.01,5.13,10,11.31,19.3,18.56,27.89,14.22,16.86,31.31,29.98,51.29,39.33,9.92,4.64,20.25,8.09,30.93,10.47,.24,.05,.5,.04,.74,.06,.84,.41,1.69-.36,2.53,.01,17.69,3.46,35.43,3.73,53.21,.79,12.17-1.79,23.81-5.4,35.07-10.26,12.32-5.32,23.71-12.23,34.1-20.72,15.33-12.53,27.86-27.42,37.26-44.89,1.46-2.71,.19-4.99-2.9-4.95-4.77,.06-9.43-.68-14.08-1.62-3.29-.79-6.51-1.81-9.67-3.02-8.67-3.63-16.48-8.6-22.96-15.43-9.99-10.53-16.1-22.97-17.98-37.45-.3-2.29-.19-4.6-.62-6.88-.22-1.18,.09-2.37,.56-3.47,.85-2.01,2.7-3.03,4.72-2.67Z"/>
  <path class="cls-7" d="M308.28,271.13c-.94,1.57-2.27,2.37-4.15,2.13-.88-.11-1.33,.13-1.38,1.19-.11,2.89-.87,3.99-2.52,4.01-1.7,.03-2.48-1.11-2.67-4.11-.05-.77-.22-1.19-1.06-1.1-.31,.03-.62,.01-.93,0-2-.08-3.22-1.08-3.23-2.63,0-1.56,1.22-2.69,3.2-2.56,1.7,.11,2.12-.46,2.05-2.08-.09-2.03,.98-3.17,2.6-3.18,1.64,0,2.67,1.1,2.56,3.17-.08,1.62,.35,2.33,2.05,2.06,1.86-.29,2.79,.88,3.49,2.36v.75Z"/>
  <path class="cls-13" d="M155.51,316.82c1.62-.63,3.25-.58,4.87,0h-4.87Z"/>
  <path class="cls-11" d="M183.25,305.3c-7.96,1.59-16.02,2.13-24.12,2.17-10.05,.06-20-.8-29.84-2.88-.32-.65-1.09-.05-1.48-.53-4.5-1.8-9.04-3.49-13.48-5.41-11.47-4.97-22.19-11.22-32.22-18.7-7.97-5.94-15.29-12.61-22.02-19.89-8.09-8.75-15.08-18.35-20.93-28.76-7.06-12.56-12.37-25.81-15.59-39.87-1.62-7.08-2.71-14.24-3.33-21.5-.32-3.73-.49-7.48-.47-11.17,.04-5.38,.13-10.79,.82-16.19,.83-6.6,1.91-13.13,3.45-19.6,1.97-8.26,4.7-16.25,8.08-24.02,5.12-11.76,11.63-22.71,19.54-32.82,6.57-8.42,13.86-16.14,21.99-23.08,7.07-6.03,14.56-11.46,22.54-16.23,9.17-5.48,18.79-9.99,28.89-13.5,.69-.24,1.48-.32,2-.93,.35-.91,1.22-1.01,1.99-1.17,6.06-1.25,12.18-1.92,18.34-2.45,5.3-.46,10.6-.47,15.89-.29,6.6,.22,13.2,.65,19.68,2.09,1.1,.73,2.37,1.08,3.61,1.5,18.66,6.24,35.44,15.8,50.46,28.52,14.92,12.64,26.92,27.61,36.28,44.74,1.72,3.15,1.32,6.87-1,9.35-3.34,1.08-6.67,2.2-10.04,3.18-11.63,.73-22.02,4.68-30.93,12.24-10.62,9.01-16.56,20.71-19.24,34.22-.98,4.97-1.6,9.99-1.41,15.05,.55,14.69,4.23,28.39,13.77,39.95,8.97,10.86,20.46,17.32,34.56,18.89,1.25,.14,2.37,.71,3.6,.87,3.24,1.01,6.47,2.03,9.71,3.04,2.12,1.52,2.72,5.18,1.27,8.17-2.71,5.57-6.03,10.78-9.55,15.85-6.28,9.05-13.43,17.37-21.49,24.88-9.11,8.5-19.12,15.8-29.99,21.91-7.64,4.29-15.6,7.84-23.85,10.76-1.8,.64-3.69,.95-5.48,1.62Z"/>
  <path class="cls-3" d="M262.33,97.43c3.34-1.04,6.67-2.07,10.01-3.11,.86-.7,1.91-.88,2.95-1.05,3.2-.51,6.4-1.01,9.66-.87,.62,.03,1.25,0,1.86-.11,2.75-.48,3.69-2.27,2.38-4.74-4.63-8.81-10.2-16.98-16.59-24.61-10.69-12.77-23.13-23.54-37.39-32.16-14.1-8.53-29.23-14.47-45.33-17.97-2.23-.48-4.46-.94-6.64-1.65-8.19-1.64-16.49-2.14-24.82-2.19-10.16-.05-20.21,.98-30.18,2.97-.44,.09-.81,.23-1.17,.46-3.19,.14-6.22,1.13-9.22,2.05C66.26,30.22,31.97,63.73,15.38,115.08c-5.63,17.43-7.14,35.45-5.99,53.71,.35,5.54,1.18,11.01,2.04,16.49,.45,2.85-.94,4.91-3.53,5.44-2.44,.49-4.68-1.04-5.27-3.82-1.32-6.22-2.08-12.54-2.39-18.89-1.04-21.49,1.35-42.56,8.83-62.82C25.93,59.57,57.12,27.86,102.36,10.07,116.69,4.44,131.63,1.31,147.01,.35c42.26-2.63,79.88,9.35,112.63,36.22,15.7,12.88,28.04,28.55,37.97,46.26,4.88,8.69-.84,18.99-11.03,19-12.97,.02-24.53,4.22-34.68,12.25-9.19,7.27-15.51,16.56-18.93,27.8-1.02,3.36-2.37,4.45-5.51,4.47-2.78-.12-4.68-2.57-4.09-5.43,.59-2.88,1.61-5.63,2.79-8.32,6.71-15.34,17.6-26.67,32.64-34.04,1.14-.56,2.34-.8,3.54-1.13Z"/>
  <path class="cls-4" d="M262.33,97.43c-5.57,2.6-10.96,5.48-15.81,9.33-10.83,8.61-18.29,19.5-22.33,32.72-1.1,3.6-.21,5.46,3.27,6.87-.95,2.31-1.1,4.75-1.19,7.21-3.79,.86-4.95,2.29-4.72,6.11,1.67,27.86,15.21,47.56,40.64,59.09,.16,.07,.3,.21,.45,.32-11.01-.67-21.1-4.02-29.79-10.9-9.81-7.76-16.33-17.77-19.73-29.84-2.02-7.16-3.12-14.45-2.88-21.86,.44-13.85,4.13-26.74,12.49-37.98,7.3-9.82,17.01-16.26,28.81-19.43,3.51-.94,7.11-1.73,10.81-1.63Z"/>
  <path class="cls-3" d="M16.41,222.14c-2.04,0-3.46-1-4.22-2.82-2.96-7.1-5.42-14.37-7.27-21.84-.59-2.36,.74-4.72,2.87-5.35,2.44-.72,5.04,.43,5.7,2.85,1.97,7.17,4.34,14.2,7.03,21.13,1.16,2.99-1.04,6.01-4.11,6.03Z"/>
  <path class="cls-2" d="M277.57,136.84c-.03,4.91-4.06,8.87-8.98,8.84-4.89-.03-8.91-4.11-8.86-8.98,.05-4.88,4.19-8.95,9-8.86,4.95,.09,8.87,4.09,8.84,9.01Z"/>
  <path class="cls-7" d="M23.2,275.21c4.29,.03,7.68,3.51,7.62,7.82-.06,4.18-3.52,7.57-7.7,7.57-4.29,0-7.7-3.44-7.68-7.76,.02-4.32,3.42-7.67,7.77-7.64Z"/>
  <path class="cls-21" d="M51.03,22.74c-.03,1.57-1.22,2.7-3.22,2.61-1.69-.08-2.13,.46-2.04,2.09,.11,1.95-1.08,3.19-2.66,3.13-1.51-.05-2.6-1.24-2.5-3.1,.08-1.57-.27-2.21-2.01-2.12-2.09,.1-3.33-1.12-3.25-2.76,.07-1.59,1.18-2.5,3.33-2.39,1.62,.08,1.99-.51,1.93-2.01-.1-2.19,.91-3.29,2.66-3.25,1.67,.04,2.64,1.1,2.5,3.21-.11,1.7,.46,2.13,2.09,2.05,2.08-.11,3.21,.92,3.18,2.54Z"/>
  <path class="cls-17" d="M246.91,11.34c-.27,1.5-1.07,2.29-2.56,2.19-1.43-.09-2.16-1.01-2.12-2.34,.04-1.43,.9-2.29,2.42-2.23,1.53,.06,2.14,1.02,2.26,2.38Z"/>
  <path class="cls-18" d="M10.93,77.82c-.23,.97-.68,1.65-1.77,1.58-.97-.06-1.51-.66-1.5-1.58,.01-1.04,.71-1.61,1.71-1.57,.94,.03,1.39,.71,1.57,1.57Z"/>
  <path class="cls-18" d="M255.01,155.48c.85,.19,1.55,.54,1.6,1.54,.05,1.06-.52,1.69-1.53,1.73-1.04,.04-1.62-.67-1.62-1.66,0-.93,.67-1.42,1.56-1.6Z"/>
  <path class="cls-16" d="M256.54,14.23c.96,.05,1.54,.5,1.61,1.46,.08,1.06-.5,1.67-1.5,1.7-.89,.03-1.54-.44-1.59-1.43-.05-1.04,.46-1.61,1.47-1.73Z"/>
  <path class="cls-15" d="M278.11,291.07c-.09,.72-.5,1.41-1.59,1.4-.95-.01-1.5-.53-1.55-1.48-.06-1.08,.6-1.64,1.57-1.66,.9-.02,1.5,.52,1.57,1.74Z"/>
  <path class="cls-14" d="M127.81,304.06c.52,.09,1.17-.17,1.48,.53-.76-.17-1.6,.07-2.27-.48,.27-.02,.53-.03,.8-.05Z"/>
  <path class="cls-4" d="M183.25,305.3c.76-.84,1.87-.89,2.84-1.21,15.93-5.19,30.47-13.05,43.85-23.06,7.28-5.44,14.03-11.53,20.15-18.24,8.94-9.8,16.8-20.41,22.87-32.26,1.5-2.92,1.25-5.74-.64-8.42,4.9,.85,9.82,1.53,14.82,1.58,2.85,.03,4.07,2.65,2.66,5.27-8.12,15.05-18.48,28.36-31.14,39.83-16.36,14.83-35.11,25.55-56.22,32.06-6.29,1.94-12.65,3.63-19.2,4.45Z"/>
  <path class="cls-3" d="M103.24,117.65c-19.85-.04-36.03-16.24-36-36.03,.03-19.9,16.31-36.05,36.25-35.96,19.84,.09,35.95,16.3,35.89,36.12-.06,19.8-16.3,35.91-36.15,35.87Z"/>
  <path class="cls-3" d="M139.39,240.33c-.03,19.75-16.33,36.02-36.08,36.02-19.74,0-36.03-16.28-36.07-36.04-.04-19.78,16.44-36.23,36.18-36.12,19.81,.12,36,16.38,35.97,36.14Z"/>
  <path class="cls-3" d="M194.01,101.26c-20-.08-36.02-16.23-35.92-36.22,.1-20.02,16.28-35.89,36.52-35.81,19.57,.08,35.59,16.49,35.45,36.31-.14,19.79-16.29,35.8-36.05,35.72Z"/>
  <path class="cls-3" d="M63.94,128.04c19.85-.04,36.08,16.07,36.13,35.88,.06,19.89-16.17,36.12-36.09,36.11-19.85-.01-36.03-16.16-36.05-35.98-.02-19.8,16.15-35.97,36.01-36.01Z"/>
  <path class="cls-3" d="M191.39,218.2c15.38,.08,27.55,12.42,27.44,27.82-.1,15.17-12.6,27.46-27.8,27.34-15.27-.13-27.38-12.66-27.28-28.26,.09-14.75,12.65-26.98,27.63-26.9Z"/>
  <path class="cls-4" d="M183.25,11.17c7.29,.94,14.37,2.82,21.33,5.12,27.27,8.99,50.14,24.52,68.56,46.55,6.37,7.61,11.87,15.82,16.56,24.57,1.52,2.84,.3,5.21-2.93,5.29-4.87,.13-9.67,.67-14.44,1.62,2.15-3.26,1.9-6.37,.02-9.78-4.34-7.87-9.28-15.33-14.88-22.32-6.16-7.68-13.01-14.71-20.53-21.1-7.47-6.35-15.43-11.94-23.91-16.8-8.89-5.08-18.24-9.15-27.99-12.3-.63-.2-1.37-.2-1.79-.86Z"/>
  <path class="cls-9" d="M268.7,140.43c-1.99,.02-3.7-1.67-3.7-3.67,0-1.91,1.61-3.58,3.54-3.65,1.98-.07,3.74,1.59,3.79,3.58,.04,2-1.61,3.72-3.62,3.74Z"/>
  <path class="cls-8" d="M23.17,285.35c-1.35,.03-2.51-1.09-2.47-2.46,.04-1.45,.83-2.3,2.28-2.42,1.38-.12,2.54,.96,2.6,2.32,.05,1.33-1.08,2.53-2.41,2.56Z"/>
  <path class="cls-12" d="M88.03,59.53c7.46-5.15,15.47-6.24,24.04-3.31,2.65,2.23,3.89,5.36,4.96,8.45,4.51,13.02,4.46,25.93-1.53,38.56-.64,1.35-1.36,2.68-2.66,3.55-7.6,3.06-14.98,2.31-22.18-1.29-.71-.36-1.37-.82-2.05-1.24-3.76-5.53-5.25-11.84-5.77-18.32-.53-6.66-.27-13.34,1.89-19.78,.79-2.36,1.48-4.78,3.3-6.62Z"/>
  <path class="cls-5" d="M112.83,106.78c3.67-5.54,5.68-11.64,6.4-18.24,.92-8.48,.11-16.69-3.02-24.66-1.07-2.73-2.65-5.17-4.14-7.66,9.35,3.24,15.19,9.82,17.5,19.28,3.13,12.82-3.61,25.8-15.68,30.95-.34,.14-.7,.21-1.06,.32Z"/>
  <path class="cls-10" d="M88.03,59.53c-6.57,13.8-6.51,27.7-.7,41.71,.42,1.01,1.35,1.79,1.28,3.01-15.82-10.1-16.47-33.47-1.24-44.39,.2-.14,.44-.22,.66-.33Z"/>
  <path class="cls-7" d="M111.34,265.92c-8.66,2.8-16.62,1.29-23.96-3.95-2.25-2.51-3.08-5.67-3.85-8.8-2.63-10.76-2.17-21.36,1.94-31.72,.42-1.06,.99-2.01,1.83-2.79,7.33-5.42,15.35-6.72,24.04-4.06,2.67,1.95,3.83,4.93,4.89,7.82,4.34,11.8,4.34,23.68,.08,35.53-.74,2.06-1.85,3.96-2.88,5.88-.49,.91-1.22,1.57-2.08,2.09Z"/>
  <path class="cls-6" d="M111.34,265.92c4.14-5.66,6.34-12.03,7.12-18.96,.93-8.21,.4-16.24-2.56-24.04-1.13-2.99-2.73-5.72-4.57-8.32,9.66,3.04,15.7,9.64,18.19,19.29,3.44,13.31-4.16,27.18-17.11,31.78-.35,.12-.72,.16-1.08,.24Z"/>
  <path class="cls-10" d="M87.3,218.67c-3.63,7.43-5.09,15.3-4.81,23.53,.23,6.94,1.78,13.55,4.89,19.78-7.4-5.44-11.07-12.86-11.06-21.93,0-8.37,3.5-15.27,9.9-20.68,.33-.28,.72-.47,1.09-.7Z"/>
  <path class="cls-20" d="M177.93,43.7c7.45-5.44,15.55-6.97,24.38-4.04,1.47,.87,2.19,2.35,2.98,3.76,3.24,5.79,4.53,12.15,4.97,18.65,.46,6.9-.35,13.72-2.84,20.22-1.15,3.01-2.32,6.07-4.75,8.38-7.43,2.75-14.57,1.85-21.48-1.72-1.13-.59-2.17-1.36-3.24-2.05-3.17-4.76-4.29-10.24-4.84-15.74-.79-7.86-.23-15.67,2.62-23.17,.58-1.52,1.21-3,2.22-4.29Z"/>
  <path class="cls-19" d="M202.66,90.68c1.7-3.24,3.71-6.33,4.76-9.88,3.73-12.59,3.37-24.91-2.46-36.85-.73-1.5-1.76-2.86-2.65-4.28,8.31,2.57,13.92,8.09,17,16.09,5.24,13.61-1.55,29.01-15.04,34.49-.51,.21-1.07,.29-1.6,.43Z"/>
  <path class="cls-10" d="M177.93,43.7c-1.17,3.39-2.71,6.65-3.42,10.21-2.18,10.91-1.59,21.53,3.1,31.75,.18,.4,.43,.77,.32,1.23-7.63-5.97-11.38-13.81-10.77-23.48,.51-8.17,4.15-14.8,10.77-19.72Z"/>
  <path class="cls-2" d="M72.41,189.57c-8.77,2.9-16.86,1.55-24.33-3.83-3.24-4.16-4.16-9.17-4.9-14.16-1.22-8.21-.54-16.29,2.17-24.18,.63-1.85,1.43-3.59,2.73-5.07,7.46-5.4,15.56-6.72,24.32-3.84,2.37,2.11,3.48,4.99,4.63,7.8,1.91,4.72,2.72,9.67,3.04,14.76,.45,7.15-.46,14.05-3.05,20.71-1.1,2.83-2.24,5.7-4.62,7.8Z"/>
  <path class="cls-1" d="M72.41,189.57c1.79-3.12,3.69-6.19,4.8-9.66,1.23-3.85,2.02-7.77,2.33-11.81,.48-6.31-.12-12.48-1.89-18.54-.96-3.3-2.37-6.4-4.22-9.3-.36-.57-.68-1.18-1.02-1.77,8.34,2.65,13.92,8.25,16.94,16.33,5.14,13.76-1.97,29.22-15.69,34.41-.4,.15-.83,.23-1.25,.34Z"/>
  <path class="cls-10" d="M48.08,142.33c-3.7,7.46-5.16,15.39-4.88,23.67,.23,6.92,1.8,13.52,4.88,19.74-14.74-10.12-14.74-33.35,0-43.41Z"/>
</svg>